<?xml version="1.0" encoding="UTF-8" ?>
<!DOCTYPE svg PUBLIC "-//W3C//DTD SVG 1.1//EN" "http://www.w3.org/Graphics/SVG/1.1/DTD/svg11.dtd">
<svg width="360pt" height="360pt" viewBox="0 0 360 360" version="1.1" xmlns="http://www.w3.org/2000/svg">
<path fill="#ffffff" d=" M 0.00 0.00 L 360.00 0.00 L 360.00 360.00 L 0.00 360.00 L 0.00 0.00 Z" />
<path fill="#00c18a" d=" M 111.25 90.82 C 130.81 79.34 153.34 73.01 176.00 72.43 C 201.35 71.56 226.81 78.05 248.78 90.70 C 248.72 119.07 239.88 147.39 223.28 170.43 C 211.91 186.43 197.03 199.88 180.05 209.72 C 150.38 192.75 127.55 164.27 117.51 131.59 C 113.30 118.42 111.55 104.60 111.25 90.82 Z" />
<path fill="#ffffff" d=" M 134.42 104.09 C 163.09 91.51 196.87 91.59 225.57 104.03 C 222.17 135.14 205.11 164.32 180.05 182.99 C 154.90 164.39 138.00 135.15 134.42 104.09 Z" />
<path fill="#00c18a" d=" M 159.65 118.61 C 173.02 115.68 187.07 115.64 200.43 118.64 C 196.22 131.68 189.27 143.83 180.01 153.93 C 170.80 143.79 163.78 131.68 159.65 118.61 Z" />
<path fill="#00c18a" d=" M 144.88 242.26 C 147.24 242.25 149.59 242.24 151.95 242.25 C 150.38 244.27 148.80 246.27 147.20 248.27 C 145.37 248.25 143.55 248.24 141.73 248.24 C 142.78 246.25 143.84 244.26 144.88 242.26 Z" />
<path fill="#00c18a" d=" M 188.30 252.25 C 194.02 247.83 202.72 248.41 208.05 253.21 C 206.93 254.99 205.84 256.79 204.78 258.61 C 201.72 256.22 197.35 254.50 193.73 256.76 C 188.26 259.82 189.31 269.13 195.18 271.14 C 198.81 272.49 202.45 270.46 205.18 268.19 C 206.42 269.93 207.65 271.67 208.88 273.42 C 203.55 278.52 194.71 279.70 188.58 275.38 C 181.11 270.21 180.97 257.61 188.30 252.25 Z" />
<path fill="#00c18a" d=" M 37.01 249.75 C 42.67 249.75 48.33 249.75 54.00 249.75 C 54.00 251.75 53.99 253.75 53.99 255.75 C 50.66 255.74 47.33 255.75 44.00 255.75 C 44.00 257.58 44.00 259.41 44.00 261.25 C 46.84 261.24 49.67 261.25 52.51 261.26 C 52.50 263.25 52.50 265.25 52.49 267.25 C 49.66 267.25 46.84 267.25 44.01 267.25 C 44.00 270.66 44.00 274.08 44.00 277.50 C 41.67 277.50 39.33 277.50 37.00 277.50 C 37.00 268.25 36.99 259.00 37.01 249.75 Z" />
<path fill="#00c18a" d=" M 89.64 249.74 C 92.07 249.75 94.51 249.75 96.94 249.74 C 100.07 258.99 103.27 268.22 106.35 277.49 C 103.94 277.50 101.53 277.50 99.12 277.51 C 98.55 275.59 97.97 273.67 97.40 271.75 C 94.63 271.75 91.87 271.75 89.11 271.74 C 88.56 273.66 88.01 275.58 87.45 277.50 C 85.04 277.50 82.63 277.50 80.22 277.52 C 83.29 268.23 86.47 258.99 89.64 249.74 Z" />
<path fill="#00c18a" d=" M 135.76 249.76 C 141.58 249.74 147.41 249.75 153.24 249.75 C 153.25 251.75 153.25 253.74 153.25 255.74 C 149.75 255.75 146.25 255.75 142.75 255.75 C 142.75 257.33 142.75 258.91 142.75 260.49 C 145.50 260.50 148.24 260.50 150.99 260.49 C 150.99 262.49 150.99 264.50 150.99 266.51 C 148.24 266.50 145.50 266.50 142.75 266.51 C 142.75 268.17 142.75 269.83 142.75 271.49 C 146.41 271.50 150.08 271.50 153.74 271.50 C 153.74 273.49 153.75 275.49 153.75 277.50 C 147.75 277.51 141.75 277.51 135.75 277.50 C 135.75 268.25 135.74 259.00 135.76 249.76 Z" />
<path fill="#00c18a" d=" M 238.25 249.75 C 240.58 249.75 242.91 249.75 245.24 249.75 C 245.32 255.81 245.13 261.87 245.32 267.92 C 245.48 272.76 254.18 272.85 254.42 267.99 C 254.63 261.92 254.42 255.83 254.51 249.75 C 256.83 249.75 259.16 249.75 261.50 249.75 C 261.35 256.47 261.82 263.22 261.27 269.92 C 259.28 279.36 244.85 280.82 239.85 273.20 C 238.62 271.39 238.21 269.18 238.24 267.02 C 238.24 261.27 238.25 255.51 238.25 249.75 Z" />
<path fill="#00c18a" d=" M 295.09 249.74 C 297.59 249.75 300.09 249.75 302.59 249.74 C 304.47 254.92 306.24 260.15 307.94 265.40 C 309.61 260.15 311.49 254.97 313.26 249.75 C 315.77 249.74 318.29 249.75 320.82 249.77 C 321.57 259.01 322.34 268.25 323.06 277.49 C 320.73 277.50 318.41 277.50 316.09 277.52 C 315.70 271.99 315.13 266.46 315.24 260.90 C 313.91 264.96 312.50 269.00 311.00 273.00 C 308.96 272.99 306.92 272.99 304.88 273.00 C 303.51 269.14 302.05 265.30 300.76 261.41 C 300.75 266.77 300.10 272.09 299.87 277.44 C 297.51 277.50 295.15 277.51 292.79 277.51 C 293.52 268.25 294.32 259.00 295.09 249.74 Z" />
<path fill="#ffffff" d=" M 93.28 256.90 C 94.02 259.95 94.86 262.99 95.76 266.00 C 94.10 266.00 92.45 265.99 90.80 266.00 C 91.70 262.98 92.54 259.95 93.28 256.90 Z" />
</svg>
